solid Mesh
  facet normal 0 1 0
    outer loop
      vertex -17.016 40 24.7796
      vertex -25.016 40 24.7796
      vertex -17.016 40 67.2796
    endloop
  endfacet
  facet normal 0 1 0
    outer loop
      vertex -25.016 40 24.7796
      vertex -25.016 40 67.2796
      vertex -17.016 40 67.2796
    endloop
  endfacet
  facet normal 0 0 -1
    outer loop
      vertex -17.016 -70 24.7796
      vertex -25.016 -70 24.7796
      vertex -17.016 -30 24.7796
    endloop
  endfacet
  facet normal 0 0 -1
    outer loop
      vertex -25.016 -70 24.7796
      vertex -25.016 -30 24.7796
      vertex -17.016 -30 24.7796
    endloop
  endfacet
  facet normal 2.59229e-16 -1 -1.02857e-14
    outer loop
      vertex -20 1.30029e-15 74.7796
      vertex -25.016 9.99224e-29 74.7796
      vertex -20 4.6189e-13 30
    endloop
  endfacet
  facet normal 9.20833e-14 -1 1.85145e-27
    outer loop
      vertex -25.016 9.99224e-29 74.7796
      vertex -25.016 -9.24725e-26 24.7796
      vertex -20 4.6189e-13 30
    endloop
  endfacet
  facet normal -2.34522e-14 -1 1.11012e-13
    outer loop
      vertex -20 4.6189e-13 30
      vertex -25.016 -9.24725e-26 24.7796
      vertex -17.016 3.91909e-13 30
    endloop
  endfacet
  facet normal 4.89886e-14 -1 0
    outer loop
      vertex -25.016 -9.24725e-26 24.7796
      vertex -17.016 3.91909e-13 24.7796
      vertex -17.016 3.91909e-13 30
    endloop
  endfacet
  facet normal -1 0 0
    outer loop
      vertex -20 -30 74.7796
      vertex -20 1.30029e-15 74.7796
      vertex -20 -30 30
    endloop
  endfacet
  facet normal -1 0 0
    outer loop
      vertex -20 1.30029e-15 74.7796
      vertex -20 4.6189e-13 30
      vertex -20 -30 30
    endloop
  endfacet
  facet normal -1 0 0
    outer loop
      vertex -25.016 -30 74.7796
      vertex -25.016 -30 24.7796
      vertex -25.016 -62.5 74.7796
    endloop
  endfacet
  facet normal -1 0 0
    outer loop
      vertex -25.016 -30 24.7796
      vertex -25.016 -70 24.7796
      vertex -25.016 -62.5 74.7796
    endloop
  endfacet
  facet normal -1 0 0
    outer loop
      vertex -25.016 -70 24.7796
      vertex -25.016 -70 67.2796
      vertex -25.016 -62.5 74.7796
    endloop
  endfacet
  facet normal -1 0 0
    outer loop
      vertex -25.016 -70 67.2796
      vertex -25.016 -69.9929 67.6067
      vertex -25.016 -62.5 74.7796
    endloop
  endfacet
  facet normal -1 0 0
    outer loop
      vertex -25.016 -62.5 74.7796
      vertex -25.016 -69.9929 67.6067
      vertex -25.016 -69.9715 67.9333
    endloop
  endfacet
  facet normal -1 0 0
    outer loop
      vertex -25.016 -69.8222 68.9029
      vertex -25.016 -69.7444 69.2207
      vertex -25.016 -62.5 74.7796
    endloop
  endfacet
  facet normal -1 0 0
    outer loop
      vertex -25.016 -69.7444 69.2207
      vertex -25.016 -69.6529 69.5349
      vertex -25.016 -62.5 74.7796
    endloop
  endfacet
  facet normal -1 0 0
    outer loop
      vertex -25.016 -62.5 74.7796
      vertex -25.016 -69.6529 69.5349
      vertex -25.016 -69.5477 69.8448
    endloop
  endfacet
  facet normal -1 0 0
    outer loop
      vertex -25.016 -63.4789 74.7154
      vertex -25.016 -63.1537 74.7511
      vertex -25.016 -68.6436 71.5814
    endloop
  endfacet
  facet normal -1 0 0
    outer loop
      vertex -25.016 -63.1537 74.7511
      vertex -25.016 -62.8271 74.7725
      vertex -25.016 -68.6436 71.5814
    endloop
  endfacet
  facet normal -1 0 0
    outer loop
      vertex -25.016 -68.6436 71.5814
      vertex -25.016 -62.8271 74.7725
      vertex -25.016 -62.5 74.7796
    endloop
  endfacet
  facet normal -1 0 0
    outer loop
      vertex -25.016 -69.9715 67.9333
      vertex -25.016 -69.9358 68.2585
      vertex -25.016 -62.5 74.7796
    endloop
  endfacet
  facet normal -1 0 0
    outer loop
      vertex -25.016 -69.9358 68.2585
      vertex -25.016 -69.8861 68.582
      vertex -25.016 -62.5 74.7796
    endloop
  endfacet
  facet normal -1 0 0
    outer loop
      vertex -25.016 -62.5 74.7796
      vertex -25.016 -69.8861 68.582
      vertex -25.016 -69.8222 68.9029
    endloop
  endfacet
  facet normal -1 0 0
    outer loop
      vertex -25.016 -69.5477 69.8448
      vertex -25.016 -69.4291 70.1497
      vertex -25.016 -62.5 74.7796
    endloop
  endfacet
  facet normal -1 0 0
    outer loop
      vertex -25.016 -69.4291 70.1497
      vertex -25.016 -69.2973 70.4492
      vertex -25.016 -62.5 74.7796
    endloop
  endfacet
  facet normal -1 0 0
    outer loop
      vertex -25.016 -62.5 74.7796
      vertex -25.016 -69.2973 70.4492
      vertex -25.016 -69.1526 70.7427
    endloop
  endfacet
  facet normal -1 0 0
    outer loop
      vertex -25.016 -69.1526 70.7427
      vertex -25.016 -68.9952 71.0296
      vertex -25.016 -62.5 74.7796
    endloop
  endfacet
  facet normal -1 0 0
    outer loop
      vertex -25.016 -68.9952 71.0296
      vertex -25.016 -68.8254 71.3094
      vertex -25.016 -62.5 74.7796
    endloop
  endfacet
  facet normal -1 0 0
    outer loop
      vertex -25.016 -62.5 74.7796
      vertex -25.016 -68.8254 71.3094
      vertex -25.016 -68.6436 71.5814
    endloop
  endfacet
  facet normal -1 0 0
    outer loop
      vertex -25.016 -65.3701 74.2087
      vertex -25.016 -68.6436 71.5814
      vertex -25.016 -65.6696 74.0769
    endloop
  endfacet
  facet normal -1 0 0
    outer loop
      vertex -25.016 -68.6436 71.5814
      vertex -25.016 -65.9631 73.9322
      vertex -25.016 -65.6696 74.0769
    endloop
  endfacet
  facet normal -1 0 0
    outer loop
      vertex -25.016 -68.6436 71.5814
      vertex -25.016 -68.4502 71.8453
      vertex -25.016 -65.9631 73.9322
    endloop
  endfacet
  facet normal -1 0 0
    outer loop
      vertex -25.016 -68.4502 71.8453
      vertex -25.016 -68.2453 72.1005
      vertex -25.016 -65.9631 73.9322
    endloop
  endfacet
  facet normal -1 0 0
    outer loop
      vertex -25.016 -65.9631 73.9322
      vertex -25.016 -68.2453 72.1005
      vertex -25.016 -68.0296 72.3465
    endloop
  endfacet
  facet normal -1 0 0
    outer loop
      vertex -25.016 -68.0296 72.3465
      vertex -25.016 -67.8033 72.5829
      vertex -25.016 -65.9631 73.9322
    endloop
  endfacet
  facet normal -1 0 0
    outer loop
      vertex -25.016 -67.8033 72.5829
      vertex -25.016 -67.5669 72.8092
      vertex -25.016 -65.9631 73.9322
    endloop
  endfacet
  facet normal -1 0 0
    outer loop
      vertex -25.016 -65.9631 73.9322
      vertex -25.016 -67.5669 72.8092
      vertex -25.016 -67.3209 73.0249
    endloop
  endfacet
  facet normal -1 0 0
    outer loop
      vertex -25.016 -67.3209 73.0249
      vertex -25.016 -67.0657 73.2298
      vertex -25.016 -66.8018 73.4232
    endloop
  endfacet
  facet normal -1 0 0
    outer loop
      vertex -25.016 -65.3701 74.2087
      vertex -25.016 -65.0652 74.3273
      vertex -25.016 -68.6436 71.5814
    endloop
  endfacet
  facet normal -1 0 0
    outer loop
      vertex -25.016 -65.0652 74.3273
      vertex -25.016 -64.7553 74.4325
      vertex -25.016 -68.6436 71.5814
    endloop
  endfacet
  facet normal -1 0 0
    outer loop
      vertex -25.016 -68.6436 71.5814
      vertex -25.016 -64.7553 74.4325
      vertex -25.016 -64.4411 74.524
    endloop
  endfacet
  facet normal -1 0 0
    outer loop
      vertex -25.016 -66.8018 73.4232
      vertex -25.016 -66.5297 73.605
      vertex -25.016 -67.3209 73.0249
    endloop
  endfacet
  facet normal -1 0 0
    outer loop
      vertex -25.016 -66.5297 73.605
      vertex -25.016 -66.25 73.7748
      vertex -25.016 -67.3209 73.0249
    endloop
  endfacet
  facet normal -1 0 0
    outer loop
      vertex -25.016 -67.3209 73.0249
      vertex -25.016 -66.25 73.7748
      vertex -25.016 -65.9631 73.9322
    endloop
  endfacet
  facet normal -1 0 0
    outer loop
      vertex -25.016 -64.4411 74.524
      vertex -25.016 -64.1233 74.6018
      vertex -25.016 -68.6436 71.5814
    endloop
  endfacet
  facet normal -1 0 0
    outer loop
      vertex -25.016 -64.1233 74.6018
      vertex -25.016 -63.8024 74.6657
      vertex -25.016 -68.6436 71.5814
    endloop
  endfacet
  facet normal -1 0 0
    outer loop
      vertex -25.016 -68.6436 71.5814
      vertex -25.016 -63.8024 74.6657
      vertex -25.016 -63.4789 74.7154
    endloop
  endfacet
  facet normal 0 -1 0
    outer loop
      vertex -25.016 -70 24.7796
      vertex -17.016 -70 24.7796
      vertex -25.016 -70 67.2796
    endloop
  endfacet
  facet normal 0 -1 0
    outer loop
      vertex -17.016 -70 24.7796
      vertex -17.016 -70 67.2796
      vertex -25.016 -70 67.2796
    endloop
  endfacet
  facet normal 0 -0.999762 0.0218127
    outer loop
      vertex -25.016 -70 67.2796
      vertex -17.016 -70 67.2796
      vertex -17.016 -69.9929 67.6067
    endloop
  endfacet
  facet normal 0 -0.999762 0.0218127
    outer loop
      vertex -25.016 -70 67.2796
      vertex -17.016 -69.9929 67.6067
      vertex -25.016 -69.9929 67.6067
    endloop
  endfacet
  facet normal 0 -0.997858 0.0654158
    outer loop
      vertex -17.016 -69.9929 67.6067
      vertex -17.016 -69.9715 67.9333
      vertex -25.016 -69.9929 67.6067
    endloop
  endfacet
  facet normal 0 -0.997858 0.0654158
    outer loop
      vertex -25.016 -69.9929 67.6067
      vertex -17.016 -69.9715 67.9333
      vertex -25.016 -69.9715 67.9333
    endloop
  endfacet
  facet normal 0 -0.994057 0.108859
    outer loop
      vertex -17.016 -69.9715 67.9333
      vertex -17.016 -69.9358 68.2585
      vertex -25.016 -69.9715 67.9333
    endloop
  endfacet
  facet normal 0 -0.994057 0.108859
    outer loop
      vertex -25.016 -69.9715 67.9333
      vertex -17.016 -69.9358 68.2585
      vertex -25.016 -69.9358 68.2585
    endloop
  endfacet
  facet normal 0 -0.988362 0.15212
    outer loop
      vertex -17.016 -69.9358 68.2585
      vertex -17.016 -69.8861 68.582
      vertex -25.016 -69.9358 68.2585
    endloop
  endfacet
  facet normal 0 -0.988362 0.15212
    outer loop
      vertex -25.016 -69.9358 68.2585
      vertex -17.016 -69.8861 68.582
      vertex -25.016 -69.8861 68.582
    endloop
  endfacet
  facet normal 0 -0.980786 0.195087
    outer loop
      vertex -17.016 -69.8861 68.582
      vertex -17.016 -69.8222 68.9029
      vertex -25.016 -69.8861 68.582
    endloop
  endfacet
  facet normal 0 -0.980786 0.195087
    outer loop
      vertex -25.016 -69.8861 68.582
      vertex -17.016 -69.8222 68.9029
      vertex -25.016 -69.8222 68.9029
    endloop
  endfacet
  facet normal 0 -0.971342 0.237684
    outer loop
      vertex -17.016 -69.8222 68.9029
      vertex -17.016 -69.7444 69.2207
      vertex -25.016 -69.8222 68.9029
    endloop
  endfacet
  facet normal 0 -0.971342 0.237684
    outer loop
      vertex -25.016 -69.8222 68.9029
      vertex -17.016 -69.7444 69.2207
      vertex -25.016 -69.7444 69.2207
    endloop
  endfacet
  facet normal 0 -0.960048 0.279836
    outer loop
      vertex -17.016 -69.7444 69.2207
      vertex -17.016 -69.6529 69.5349
      vertex -25.016 -69.7444 69.2207
    endloop
  endfacet
  facet normal 0 -0.960048 0.279836
    outer loop
      vertex -25.016 -69.7444 69.2207
      vertex -17.016 -69.6529 69.5349
      vertex -25.016 -69.6529 69.5349
    endloop
  endfacet
  facet normal 0 -0.946934 0.321428
    outer loop
      vertex -17.016 -69.6529 69.5349
      vertex -17.016 -69.5477 69.8448
      vertex -25.016 -69.6529 69.5349
    endloop
  endfacet
  facet normal 0 -0.946934 0.321428
    outer loop
      vertex -25.016 -69.6529 69.5349
      vertex -17.016 -69.5477 69.8448
      vertex -25.016 -69.5477 69.8448
    endloop
  endfacet
  facet normal 0 -0.932008 0.362439
    outer loop
      vertex -17.016 -69.5477 69.8448
      vertex -17.016 -69.4291 70.1497
      vertex -25.016 -69.5477 69.8448
    endloop
  endfacet
  facet normal 0 -0.932008 0.362439
    outer loop
      vertex -25.016 -69.5477 69.8448
      vertex -17.016 -69.4291 70.1497
      vertex -25.016 -69.4291 70.1497
    endloop
  endfacet
  facet normal 0 -0.915307 0.402758
    outer loop
      vertex -17.016 -69.4291 70.1497
      vertex -17.016 -69.2973 70.4492
      vertex -25.016 -69.4291 70.1497
    endloop
  endfacet
  facet normal 0 -0.915307 0.402758
    outer loop
      vertex -25.016 -69.4291 70.1497
      vertex -17.016 -69.2973 70.4492
      vertex -25.016 -69.2973 70.4492
    endloop
  endfacet
  facet normal 0 -0.896868 0.442298
    outer loop
      vertex -17.016 -69.2973 70.4492
      vertex -17.016 -69.1526 70.7427
      vertex -25.016 -69.2973 70.4492
    endloop
  endfacet
  facet normal 0 -0.896868 0.442298
    outer loop
      vertex -25.016 -69.2973 70.4492
      vertex -17.016 -69.1526 70.7427
      vertex -25.016 -69.1526 70.7427
    endloop
  endfacet
  facet normal 0 -0.876737 0.480969
    outer loop
      vertex -17.016 -69.1526 70.7427
      vertex -17.016 -68.9952 71.0296
      vertex -25.016 -69.1526 70.7427
    endloop
  endfacet
  facet normal 0 -0.876737 0.480969
    outer loop
      vertex -25.016 -69.1526 70.7427
      vertex -17.016 -68.9952 71.0296
      vertex -25.016 -68.9952 71.0296
    endloop
  endfacet
  facet normal 0 -0.854913 0.518772
    outer loop
      vertex -17.016 -68.9952 71.0296
      vertex -17.016 -68.8254 71.3094
      vertex -25.016 -68.9952 71.0296
    endloop
  endfacet
  facet normal 0 -0.854913 0.518772
    outer loop
      vertex -25.016 -68.9952 71.0296
      vertex -17.016 -68.8254 71.3094
      vertex -25.016 -68.8254 71.3094
    endloop
  endfacet
  facet normal 0 -0.831458 0.555588
    outer loop
      vertex -17.016 -68.8254 71.3094
      vertex -17.016 -68.6436 71.5814
      vertex -25.016 -68.8254 71.3094
    endloop
  endfacet
  facet normal 0 -0.831458 0.555588
    outer loop
      vertex -25.016 -68.8254 71.3094
      vertex -17.016 -68.6436 71.5814
      vertex -25.016 -68.6436 71.5814
    endloop
  endfacet
  facet normal 0 -0.806451 0.591301
    outer loop
      vertex -17.016 -68.6436 71.5814
      vertex -17.016 -68.4502 71.8453
      vertex -25.016 -68.6436 71.5814
    endloop
  endfacet
  facet normal 0 -0.806451 0.591301
    outer loop
      vertex -25.016 -68.6436 71.5814
      vertex -17.016 -68.4502 71.8453
      vertex -25.016 -68.4502 71.8453
    endloop
  endfacet
  facet normal 0 -0.779886 0.625922
    outer loop
      vertex -17.016 -68.4502 71.8453
      vertex -17.016 -68.2453 72.1005
      vertex -25.016 -68.4502 71.8453
    endloop
  endfacet
  facet normal 0 -0.779886 0.625922
    outer loop
      vertex -25.016 -68.4502 71.8453
      vertex -17.016 -68.2453 72.1005
      vertex -25.016 -68.2453 72.1005
    endloop
  endfacet
  facet normal 0 -0.751837 0.659349
    outer loop
      vertex -17.016 -68.2453 72.1005
      vertex -17.016 -68.0296 72.3465
      vertex -25.016 -68.2453 72.1005
    endloop
  endfacet
  facet normal 0 -0.751837 0.659349
    outer loop
      vertex -25.016 -68.2453 72.1005
      vertex -17.016 -68.0296 72.3465
      vertex -25.016 -68.0296 72.3465
    endloop
  endfacet
  facet normal 0 -0.722364 0.691513
    outer loop
      vertex -17.016 -68.0296 72.3465
      vertex -17.016 -67.8033 72.5829
      vertex -25.016 -68.0296 72.3465
    endloop
  endfacet
  facet normal 0 -0.722364 0.691513
    outer loop
      vertex -25.016 -68.0296 72.3465
      vertex -17.016 -67.8033 72.5829
      vertex -25.016 -67.8033 72.5829
    endloop
  endfacet
  facet normal 0 -0.691513 0.722364
    outer loop
      vertex -17.016 -67.8033 72.5829
      vertex -17.016 -67.5669 72.8092
      vertex -25.016 -67.8033 72.5829
    endloop
  endfacet
  facet normal 0 -0.691513 0.722364
    outer loop
      vertex -25.016 -67.8033 72.5829
      vertex -17.016 -67.5669 72.8092
      vertex -25.016 -67.5669 72.8092
    endloop
  endfacet
  facet normal 0 -0.659349 0.751837
    outer loop
      vertex -17.016 -67.5669 72.8092
      vertex -17.016 -67.3209 73.0249
      vertex -25.016 -67.5669 72.8092
    endloop
  endfacet
  facet normal 0 -0.659349 0.751837
    outer loop
      vertex -25.016 -67.5669 72.8092
      vertex -17.016 -67.3209 73.0249
      vertex -25.016 -67.3209 73.0249
    endloop
  endfacet
  facet normal 0 -0.625922 0.779886
    outer loop
      vertex -17.016 -67.3209 73.0249
      vertex -17.016 -67.0657 73.2298
      vertex -25.016 -67.3209 73.0249
    endloop
  endfacet
  facet normal 0 -0.625922 0.779886
    outer loop
      vertex -25.016 -67.3209 73.0249
      vertex -17.016 -67.0657 73.2298
      vertex -25.016 -67.0657 73.2298
    endloop
  endfacet
  facet normal 0 -0.591316 0.80644
    outer loop
      vertex -17.016 -67.0657 73.2298
      vertex -17.016 -66.8018 73.4232
      vertex -25.016 -67.0657 73.2298
    endloop
  endfacet
  facet normal 0 -0.591316 0.80644
    outer loop
      vertex -25.016 -67.0657 73.2298
      vertex -17.016 -66.8018 73.4232
      vertex -25.016 -66.8018 73.4232
    endloop
  endfacet
  facet normal 0 -0.555562 0.831475
    outer loop
      vertex -17.016 -66.8018 73.4232
      vertex -17.016 -66.5297 73.605
      vertex -25.016 -66.8018 73.4232
    endloop
  endfacet
  facet normal 0 -0.555562 0.831475
    outer loop
      vertex -25.016 -66.8018 73.4232
      vertex -17.016 -66.5297 73.605
      vertex -25.016 -66.5297 73.605
    endloop
  endfacet
  facet normal 0 -0.518772 0.854913
    outer loop
      vertex -17.016 -66.5297 73.605
      vertex -17.016 -66.25 73.7748
      vertex -25.016 -66.5297 73.605
    endloop
  endfacet
  facet normal 0 -0.518772 0.854913
    outer loop
      vertex -25.016 -66.5297 73.605
      vertex -17.016 -66.25 73.7748
      vertex -25.016 -66.25 73.7748
    endloop
  endfacet
  facet normal 0 -0.480979 0.876732
    outer loop
      vertex -17.016 -66.25 73.7748
      vertex -17.016 -65.9631 73.9322
      vertex -25.016 -66.25 73.7748
    endloop
  endfacet
  facet normal 0 -0.480979 0.876732
    outer loop
      vertex -25.016 -66.25 73.7748
      vertex -17.016 -65.9631 73.9322
      vertex -25.016 -65.9631 73.9322
    endloop
  endfacet
  facet normal 0 -0.442289 0.896873
    outer loop
      vertex -17.016 -65.9631 73.9322
      vertex -17.016 -65.6696 74.0769
      vertex -25.016 -65.9631 73.9322
    endloop
  endfacet
  facet normal 0 -0.442289 0.896873
    outer loop
      vertex -25.016 -65.9631 73.9322
      vertex -17.016 -65.6696 74.0769
      vertex -25.016 -65.6696 74.0769
    endloop
  endfacet
  facet normal 0 -0.402766 0.915303
    outer loop
      vertex -17.016 -65.6696 74.0769
      vertex -17.016 -65.3701 74.2087
      vertex -25.016 -65.6696 74.0769
    endloop
  endfacet
  facet normal 0 -0.402766 0.915303
    outer loop
      vertex -25.016 -65.6696 74.0769
      vertex -17.016 -65.3701 74.2087
      vertex -25.016 -65.3701 74.2087
    endloop
  endfacet
  facet normal 0 -0.362439 0.932008
    outer loop
      vertex -17.016 -65.3701 74.2087
      vertex -17.016 -65.0652 74.3273
      vertex -25.016 -65.3701 74.2087
    endloop
  endfacet
  facet normal 0 -0.362439 0.932008
    outer loop
      vertex -25.016 -65.3701 74.2087
      vertex -17.016 -65.0652 74.3273
      vertex -25.016 -65.0652 74.3273
    endloop
  endfacet
  facet normal 0 -0.321428 0.946934
    outer loop
      vertex -17.016 -65.0652 74.3273
      vertex -17.016 -64.7553 74.4325
      vertex -25.016 -65.0652 74.3273
    endloop
  endfacet
  facet normal 0 -0.321428 0.946934
    outer loop
      vertex -25.016 -65.0652 74.3273
      vertex -17.016 -64.7553 74.4325
      vertex -25.016 -64.7553 74.4325
    endloop
  endfacet
  facet normal 0 -0.279836 0.960048
    outer loop
      vertex -17.016 -64.7553 74.4325
      vertex -17.016 -64.4411 74.524
      vertex -25.016 -64.7553 74.4325
    endloop
  endfacet
  facet normal 0 -0.279836 0.960048
    outer loop
      vertex -25.016 -64.7553 74.4325
      vertex -17.016 -64.4411 74.524
      vertex -25.016 -64.4411 74.524
    endloop
  endfacet
  facet normal 0 -0.237684 0.971342
    outer loop
      vertex -17.016 -64.4411 74.524
      vertex -17.016 -64.1233 74.6018
      vertex -25.016 -64.4411 74.524
    endloop
  endfacet
  facet normal 0 -0.237684 0.971342
    outer loop
      vertex -25.016 -64.4411 74.524
      vertex -17.016 -64.1233 74.6018
      vertex -25.016 -64.1233 74.6018
    endloop
  endfacet
  facet normal 0 -0.195087 0.980786
    outer loop
      vertex -17.016 -64.1233 74.6018
      vertex -17.016 -63.8024 74.6657
      vertex -25.016 -64.1233 74.6018
    endloop
  endfacet
  facet normal 0 -0.195087 0.980786
    outer loop
      vertex -25.016 -64.1233 74.6018
      vertex -17.016 -63.8024 74.6657
      vertex -25.016 -63.8024 74.6657
    endloop
  endfacet
  facet normal 0 -0.15212 0.988362
    outer loop
      vertex -17.016 -63.8024 74.6657
      vertex -17.016 -63.4789 74.7154
      vertex -25.016 -63.8024 74.6657
    endloop
  endfacet
  facet normal 0 -0.15212 0.988362
    outer loop
      vertex -25.016 -63.8024 74.6657
      vertex -17.016 -63.4789 74.7154
      vertex -25.016 -63.4789 74.7154
    endloop
  endfacet
  facet normal 0 -0.108882 0.994055
    outer loop
      vertex -17.016 -63.4789 74.7154
      vertex -17.016 -63.1537 74.7511
      vertex -25.016 -63.4789 74.7154
    endloop
  endfacet
  facet normal 0 -0.108882 0.994055
    outer loop
      vertex -25.016 -63.4789 74.7154
      vertex -17.016 -63.1537 74.7511
      vertex -25.016 -63.1537 74.7511
    endloop
  endfacet
  facet normal 0 -0.0653931 0.99786
    outer loop
      vertex -17.016 -63.1537 74.7511
      vertex -17.016 -62.8271 74.7725
      vertex -25.016 -63.1537 74.7511
    endloop
  endfacet
  facet normal 0 -0.0653931 0.99786
    outer loop
      vertex -25.016 -63.1537 74.7511
      vertex -17.016 -62.8271 74.7725
      vertex -25.016 -62.8271 74.7725
    endloop
  endfacet
  facet normal 0 -0.0218127 0.999762
    outer loop
      vertex -17.016 -62.8271 74.7725
      vertex -17.016 -62.5 74.7796
      vertex -25.016 -62.8271 74.7725
    endloop
  endfacet
  facet normal 0 -0.0218127 0.999762
    outer loop
      vertex -25.016 -62.8271 74.7725
      vertex -17.016 -62.5 74.7796
      vertex -25.016 -62.5 74.7796
    endloop
  endfacet
  facet normal -1 0 0
    outer loop
      vertex -25.016 -9.24725e-26 24.7796
      vertex -25.016 9.99224e-29 74.7796
      vertex -25.016 40 24.7796
    endloop
  endfacet
  facet normal -1 0 0
    outer loop
      vertex -25.016 9.99224e-29 74.7796
      vertex -25.016 32.5 74.7796
      vertex -25.016 40 24.7796
    endloop
  endfacet
  facet normal -1 0 0
    outer loop
      vertex -25.016 40 24.7796
      vertex -25.016 32.5 74.7796
      vertex -25.016 40 67.2796
    endloop
  endfacet
  facet normal -1 0 0
    outer loop
      vertex -25.016 32.5 74.7796
      vertex -25.016 32.8271 74.7725
      vertex -25.016 40 67.2796
    endloop
  endfacet
  facet normal -1 0 0
    outer loop
      vertex -25.016 36.5297 73.605
      vertex -25.016 36.8018 73.4232
      vertex -25.016 40 67.2796
    endloop
  endfacet
  facet normal -1 0 0
    outer loop
      vertex -25.016 32.8271 74.7725
      vertex -25.016 33.1537 74.7511
      vertex -25.016 40 67.2796
    endloop
  endfacet
  facet normal -1 0 0
    outer loop
      vertex -25.016 33.1537 74.7511
      vertex -25.016 33.4789 74.7154
      vertex -25.016 40 67.2796
    endloop
  endfacet
  facet normal -1 0 0
    outer loop
      vertex -25.016 40 67.2796
      vertex -25.016 33.4789 74.7154
      vertex -25.016 33.8024 74.6657
    endloop
  endfacet
  facet normal -1 0 0
    outer loop
      vertex -25.016 36.8018 73.4232
      vertex -25.016 37.0657 73.2298
      vertex -25.016 40 67.2796
    endloop
  endfacet
  facet normal -1 0 0
    outer loop
      vertex -25.016 37.0657 73.2298
      vertex -25.016 37.3209 73.0249
      vertex -25.016 40 67.2796
    endloop
  endfacet
  facet normal -1 0 0
    outer loop
      vertex -25.016 40 67.2796
      vertex -25.016 37.3209 73.0249
      vertex -25.016 39.9929 67.6067
    endloop
  endfacet
  facet normal -1 0 0
    outer loop
      vertex -25.016 33.8024 74.6657
      vertex -25.016 34.1233 74.6018
      vertex -25.016 40 67.2796
    endloop
  endfacet
  facet normal -1 0 0
    outer loop
      vertex -25.016 34.1233 74.6018
      vertex -25.016 34.4411 74.524
      vertex -25.016 40 67.2796
    endloop
  endfacet
  facet normal -1 0 0
    outer loop
      vertex -25.016 40 67.2796
      vertex -25.016 34.4411 74.524
      vertex -25.016 34.7553 74.4325
    endloop
  endfacet
  facet normal -1 0 0
    outer loop
      vertex -25.016 34.7553 74.4325
      vertex -25.016 35.0652 74.3273
      vertex -25.016 40 67.2796
    endloop
  endfacet
  facet normal -1 0 0
    outer loop
      vertex -25.016 35.0652 74.3273
      vertex -25.016 35.3701 74.2087
      vertex -25.016 40 67.2796
    endloop
  endfacet
  facet normal -1 0 0
    outer loop
      vertex -25.016 40 67.2796
      vertex -25.016 35.3701 74.2087
      vertex -25.016 35.6696 74.0769
    endloop
  endfacet
  facet normal -1 0 0
    outer loop
      vertex -25.016 35.6696 74.0769
      vertex -25.016 35.9631 73.9322
      vertex -25.016 40 67.2796
    endloop
  endfacet
  facet normal -1 0 0
    outer loop
      vertex -25.016 35.9631 73.9322
      vertex -25.016 36.25 73.7748
      vertex -25.016 40 67.2796
    endloop
  endfacet
  facet normal -1 0 0
    outer loop
      vertex -25.016 40 67.2796
      vertex -25.016 36.25 73.7748
      vertex -25.016 36.5297 73.605
    endloop
  endfacet
  facet normal -1 0 0
    outer loop
      vertex -25.016 39.7444 69.2207
      vertex -25.016 39.8222 68.9029
      vertex -25.016 37.3209 73.0249
    endloop
  endfacet
  facet normal -1 0 0
    outer loop
      vertex -25.016 39.8222 68.9029
      vertex -25.016 39.8861 68.582
      vertex -25.016 37.3209 73.0249
    endloop
  endfacet
  facet normal -1 0 0
    outer loop
      vertex -25.016 37.5669 72.8092
      vertex -25.016 37.8033 72.5829
      vertex -25.016 39.5477 69.8448
    endloop
  endfacet
  facet normal -1 0 0
    outer loop
      vertex -25.016 37.8033 72.5829
      vertex -25.016 38.0296 72.3465
      vertex -25.016 39.5477 69.8448
    endloop
  endfacet
  facet normal -1 0 0
    outer loop
      vertex -25.016 39.5477 69.8448
      vertex -25.016 38.0296 72.3465
      vertex -25.016 39.4291 70.1497
    endloop
  endfacet
  facet normal -1 0 0
    outer loop
      vertex -25.016 37.5669 72.8092
      vertex -25.016 39.5477 69.8448
      vertex -25.016 37.3209 73.0249
    endloop
  endfacet
  facet normal -1 0 0
    outer loop
      vertex -25.016 39.5477 69.8448
      vertex -25.016 39.6529 69.5349
      vertex -25.016 37.3209 73.0249
    endloop
  endfacet
  facet normal -1 0 0
    outer loop
      vertex -25.016 37.3209 73.0249
      vertex -25.016 39.6529 69.5349
      vertex -25.016 39.7444 69.2207
    endloop
  endfacet
  facet normal -1 0 0
    outer loop
      vertex -25.016 39.8861 68.582
      vertex -25.016 39.9358 68.2585
      vertex -25.016 37.3209 73.0249
    endloop
  endfacet
  facet normal -1 0 0
    outer loop
      vertex -25.016 39.9358 68.2585
      vertex -25.016 39.9715 67.9333
      vertex -25.016 37.3209 73.0249
    endloop
  endfacet
  facet normal -1 0 0
    outer loop
      vertex -25.016 37.3209 73.0249
      vertex -25.016 39.9715 67.9333
      vertex -25.016 39.9929 67.6067
    endloop
  endfacet
  facet normal -1 0 0
    outer loop
      vertex -25.016 38.0296 72.3465
      vertex -25.016 38.2453 72.1005
      vertex -25.016 38.4502 71.8453
    endloop
  endfacet
  facet normal -1 0 0
    outer loop
      vertex -25.016 38.4502 71.8453
      vertex -25.016 38.6436 71.5814
      vertex -25.016 38.0296 72.3465
    endloop
  endfacet
  facet normal -1 0 0
    outer loop
      vertex -25.016 38.6436 71.5814
      vertex -25.016 38.8254 71.3094
      vertex -25.016 38.0296 72.3465
    endloop
  endfacet
  facet normal -1 0 0
    outer loop
      vertex -25.016 38.0296 72.3465
      vertex -25.016 38.8254 71.3094
      vertex -25.016 38.9952 71.0296
    endloop
  endfacet
  facet normal -1 0 0
    outer loop
      vertex -25.016 38.9952 71.0296
      vertex -25.016 39.1526 70.7427
      vertex -25.016 38.0296 72.3465
    endloop
  endfacet
  facet normal -1 0 0
    outer loop
      vertex -25.016 39.1526 70.7427
      vertex -25.016 39.2973 70.4492
      vertex -25.016 38.0296 72.3465
    endloop
  endfacet
  facet normal -1 0 0
    outer loop
      vertex -25.016 38.0296 72.3465
      vertex -25.016 39.2973 70.4492
      vertex -25.016 39.4291 70.1497
    endloop
  endfacet
  facet normal 0 1 0
    outer loop
      vertex -17.016 -30 30
      vertex -17.016 -30 24.7796
      vertex -20 -30 30
    endloop
  endfacet
  facet normal 0 1 0
    outer loop
      vertex -17.016 -30 24.7796
      vertex -25.016 -30 24.7796
      vertex -20 -30 30
    endloop
  endfacet
  facet normal 0 1 0
    outer loop
      vertex -20 -30 30
      vertex -25.016 -30 24.7796
      vertex -20 -30 74.7796
    endloop
  endfacet
  facet normal 0 1 0
    outer loop
      vertex -25.016 -30 24.7796
      vertex -25.016 -30 74.7796
      vertex -20 -30 74.7796
    endloop
  endfacet
  facet normal 0 0 -1
    outer loop
      vertex -17.016 3.91909e-13 30
      vertex -17.016 -30 30
      vertex -20 4.6189e-13 30
    endloop
  endfacet
  facet normal 0 0 -1
    outer loop
      vertex -17.016 -30 30
      vertex -20 -30 30
      vertex -20 4.6189e-13 30
    endloop
  endfacet
  facet normal 1 0 0
    outer loop
      vertex -17.016 -70 24.7796
      vertex -17.016 -30 24.7796
      vertex -17.016 -70 67.2796
    endloop
  endfacet
  facet normal 1 0 0
    outer loop
      vertex -17.016 -30 24.7796
      vertex -17.016 -30 30
      vertex -17.016 -70 67.2796
    endloop
  endfacet
  facet normal 1 0 0
    outer loop
      vertex -17.016 -70 67.2796
      vertex -17.016 -30 30
      vertex -17.016 -69.9929 67.6067
    endloop
  endfacet
  facet normal 1 0 0
    outer loop
      vertex -17.016 3.91909e-13 24.7796
      vertex -17.016 40 24.7796
      vertex -17.016 3.91909e-13 30
    endloop
  endfacet
  facet normal 1 0 0
    outer loop
      vertex -17.016 40 24.7796
      vertex -17.016 40 67.2796
      vertex -17.016 3.91909e-13 30
    endloop
  endfacet
  facet normal 1 0 0
    outer loop
      vertex -17.016 -69.7444 69.2207
      vertex -17.016 -69.8222 68.9029
      vertex -17.016 -30 30
    endloop
  endfacet
  facet normal 1 0 0
    outer loop
      vertex -17.016 -69.8222 68.9029
      vertex -17.016 -69.8861 68.582
      vertex -17.016 -30 30
    endloop
  endfacet
  facet normal 1 0 0
    outer loop
      vertex -17.016 -69.8861 68.582
      vertex -17.016 -69.9358 68.2585
      vertex -17.016 -30 30
    endloop
  endfacet
  facet normal 1 0 0
    outer loop
      vertex -17.016 -69.9358 68.2585
      vertex -17.016 -69.9715 67.9333
      vertex -17.016 -30 30
    endloop
  endfacet
  facet normal 1 0 0
    outer loop
      vertex -17.016 -30 30
      vertex -17.016 -69.9715 67.9333
      vertex -17.016 -69.9929 67.6067
    endloop
  endfacet
  facet normal 1 0 0
    outer loop
      vertex -17.016 37.5669 72.8092
      vertex -17.016 37.3209 73.0249
      vertex -17.016 3.91909e-13 30
    endloop
  endfacet
  facet normal 1 0 0
    outer loop
      vertex -17.016 33.4789 74.7154
      vertex -17.016 33.1537 74.7511
      vertex -17.016 3.91909e-13 30
    endloop
  endfacet
  facet normal 1 0 0
    outer loop
      vertex -17.016 -65.6696 74.0769
      vertex -17.016 -65.9631 73.9322
      vertex -17.016 -30 30
    endloop
  endfacet
  facet normal 1 0 0
    outer loop
      vertex -17.016 33.1537 74.7511
      vertex -17.016 32.8271 74.7725
      vertex -17.016 3.91909e-13 30
    endloop
  endfacet
  facet normal 1 0 0
    outer loop
      vertex -17.016 32.8271 74.7725
      vertex -17.016 32.5 74.7796
      vertex -17.016 3.91909e-13 30
    endloop
  endfacet
  facet normal 1 0 0
    outer loop
      vertex -17.016 3.91909e-13 30
      vertex -17.016 32.5 74.7796
      vertex -17.016 -30 30
    endloop
  endfacet
  facet normal 1 0 0
    outer loop
      vertex -17.016 32.5 74.7796
      vertex -17.016 -62.5 74.7796
      vertex -17.016 -30 30
    endloop
  endfacet
  facet normal 1 0 0
    outer loop
      vertex -17.016 -30 30
      vertex -17.016 -62.5 74.7796
      vertex -17.016 -62.8271 74.7725
    endloop
  endfacet
  facet normal 1 0 0
    outer loop
      vertex -17.016 -62.8271 74.7725
      vertex -17.016 -63.1537 74.7511
      vertex -17.016 -30 30
    endloop
  endfacet
  facet normal 1 0 0
    outer loop
      vertex -17.016 -63.1537 74.7511
      vertex -17.016 -63.4789 74.7154
      vertex -17.016 -30 30
    endloop
  endfacet
  facet normal 1 0 0
    outer loop
      vertex -17.016 -30 30
      vertex -17.016 -63.4789 74.7154
      vertex -17.016 -63.8024 74.6657
    endloop
  endfacet
  facet normal 1 0 0
    outer loop
      vertex -17.016 40 67.2796
      vertex -17.016 39.9929 67.6067
      vertex -17.016 3.91909e-13 30
    endloop
  endfacet
  facet normal 1 0 0
    outer loop
      vertex -17.016 39.9929 67.6067
      vertex -17.016 39.9715 67.9333
      vertex -17.016 3.91909e-13 30
    endloop
  endfacet
  facet normal 1 0 0
    outer loop
      vertex -17.016 3.91909e-13 30
      vertex -17.016 39.9715 67.9333
      vertex -17.016 39.9358 68.2585
    endloop
  endfacet
  facet normal 1 0 0
    outer loop
      vertex -17.016 39.9358 68.2585
      vertex -17.016 39.8861 68.582
      vertex -17.016 3.91909e-13 30
    endloop
  endfacet
  facet normal 1 0 0
    outer loop
      vertex -17.016 39.8861 68.582
      vertex -17.016 39.8222 68.9029
      vertex -17.016 3.91909e-13 30
    endloop
  endfacet
  facet normal 1 0 0
    outer loop
      vertex -17.016 3.91909e-13 30
      vertex -17.016 39.8222 68.9029
      vertex -17.016 39.7444 69.2207
    endloop
  endfacet
  facet normal 1 0 0
    outer loop
      vertex -17.016 -64.7553 74.4325
      vertex -17.016 -65.0652 74.3273
      vertex -17.016 -30 30
    endloop
  endfacet
  facet normal 1 0 0
    outer loop
      vertex -17.016 -65.0652 74.3273
      vertex -17.016 -65.3701 74.2087
      vertex -17.016 -30 30
    endloop
  endfacet
  facet normal 1 0 0
    outer loop
      vertex -17.016 -30 30
      vertex -17.016 -65.3701 74.2087
      vertex -17.016 -65.6696 74.0769
    endloop
  endfacet
  facet normal 1 0 0
    outer loop
      vertex -17.016 37.5669 72.8092
      vertex -17.016 3.91909e-13 30
      vertex -17.016 37.8033 72.5829
    endloop
  endfacet
  facet normal 1 0 0
    outer loop
      vertex -17.016 37.3209 73.0249
      vertex -17.016 37.0657 73.2298
      vertex -17.016 3.91909e-13 30
    endloop
  endfacet
  facet normal 1 0 0
    outer loop
      vertex -17.016 37.0657 73.2298
      vertex -17.016 36.8018 73.4232
      vertex -17.016 3.91909e-13 30
    endloop
  endfacet
  facet normal 1 0 0
    outer loop
      vertex -17.016 3.91909e-13 30
      vertex -17.016 36.8018 73.4232
      vertex -17.016 36.5297 73.605
    endloop
  endfacet
  facet normal 1 0 0
    outer loop
      vertex -17.016 36.5297 73.605
      vertex -17.016 36.25 73.7748
      vertex -17.016 3.91909e-13 30
    endloop
  endfacet
  facet normal 1 0 0
    outer loop
      vertex -17.016 36.25 73.7748
      vertex -17.016 35.9631 73.9322
      vertex -17.016 3.91909e-13 30
    endloop
  endfacet
  facet normal 1 0 0
    outer loop
      vertex -17.016 3.91909e-13 30
      vertex -17.016 35.9631 73.9322
      vertex -17.016 35.6696 74.0769
    endloop
  endfacet
  facet normal 1 0 0
    outer loop
      vertex -17.016 3.91909e-13 30
      vertex -17.016 34.7553 74.4325
      vertex -17.016 34.4411 74.524
    endloop
  endfacet
  facet normal 1 0 0
    outer loop
      vertex -17.016 -63.8024 74.6657
      vertex -17.016 -64.1233 74.6018
      vertex -17.016 -30 30
    endloop
  endfacet
  facet normal 1 0 0
    outer loop
      vertex -17.016 -64.1233 74.6018
      vertex -17.016 -64.4411 74.524
      vertex -17.016 -30 30
    endloop
  endfacet
  facet normal 1 0 0
    outer loop
      vertex -17.016 -30 30
      vertex -17.016 -64.4411 74.524
      vertex -17.016 -64.7553 74.4325
    endloop
  endfacet
  facet normal 1 0 0
    outer loop
      vertex -17.016 39.7444 69.2207
      vertex -17.016 39.6529 69.5349
      vertex -17.016 3.91909e-13 30
    endloop
  endfacet
  facet normal 1 0 0
    outer loop
      vertex -17.016 39.6529 69.5349
      vertex -17.016 39.5477 69.8448
      vertex -17.016 3.91909e-13 30
    endloop
  endfacet
  facet normal 1 0 0
    outer loop
      vertex -17.016 3.91909e-13 30
      vertex -17.016 39.5477 69.8448
      vertex -17.016 39.4291 70.1497
    endloop
  endfacet
  facet normal 1 0 0
    outer loop
      vertex -17.016 35.6696 74.0769
      vertex -17.016 35.3701 74.2087
      vertex -17.016 3.91909e-13 30
    endloop
  endfacet
  facet normal 1 0 0
    outer loop
      vertex -17.016 35.3701 74.2087
      vertex -17.016 35.0652 74.3273
      vertex -17.016 3.91909e-13 30
    endloop
  endfacet
  facet normal 1 0 0
    outer loop
      vertex -17.016 3.91909e-13 30
      vertex -17.016 35.0652 74.3273
      vertex -17.016 34.7553 74.4325
    endloop
  endfacet
  facet normal 1 0 0
    outer loop
      vertex -17.016 34.4411 74.524
      vertex -17.016 34.1233 74.6018
      vertex -17.016 3.91909e-13 30
    endloop
  endfacet
  facet normal 1 0 0
    outer loop
      vertex -17.016 34.1233 74.6018
      vertex -17.016 33.8024 74.6657
      vertex -17.016 3.91909e-13 30
    endloop
  endfacet
  facet normal 1 0 0
    outer loop
      vertex -17.016 3.91909e-13 30
      vertex -17.016 33.8024 74.6657
      vertex -17.016 33.4789 74.7154
    endloop
  endfacet
  facet normal 1 0 0
    outer loop
      vertex -17.016 -65.9631 73.9322
      vertex -17.016 -66.25 73.7748
      vertex -17.016 -30 30
    endloop
  endfacet
  facet normal 1 0 0
    outer loop
      vertex -17.016 -66.25 73.7748
      vertex -17.016 -66.5297 73.605
      vertex -17.016 -30 30
    endloop
  endfacet
  facet normal 1 0 0
    outer loop
      vertex -17.016 -30 30
      vertex -17.016 -66.5297 73.605
      vertex -17.016 -66.8018 73.4232
    endloop
  endfacet
  facet normal 1 0 0
    outer loop
      vertex -17.016 -66.8018 73.4232
      vertex -17.016 -67.0657 73.2298
      vertex -17.016 -30 30
    endloop
  endfacet
  facet normal 1 0 0
    outer loop
      vertex -17.016 -67.0657 73.2298
      vertex -17.016 -67.3209 73.0249
      vertex -17.016 -30 30
    endloop
  endfacet
  facet normal 1 0 0
    outer loop
      vertex -17.016 -30 30
      vertex -17.016 -67.3209 73.0249
      vertex -17.016 -67.5669 72.8092
    endloop
  endfacet
  facet normal 1 0 0
    outer loop
      vertex -17.016 -67.5669 72.8092
      vertex -17.016 -67.8033 72.5829
      vertex -17.016 -30 30
    endloop
  endfacet
  facet normal 1 0 0
    outer loop
      vertex -17.016 -67.8033 72.5829
      vertex -17.016 -68.0296 72.3465
      vertex -17.016 -30 30
    endloop
  endfacet
  facet normal 1 0 0
    outer loop
      vertex -17.016 -30 30
      vertex -17.016 -68.0296 72.3465
      vertex -17.016 -68.2453 72.1005
    endloop
  endfacet
  facet normal 1 0 0
    outer loop
      vertex -17.016 -68.2453 72.1005
      vertex -17.016 -68.4502 71.8453
      vertex -17.016 -30 30
    endloop
  endfacet
  facet normal 1 0 0
    outer loop
      vertex -17.016 -68.4502 71.8453
      vertex -17.016 -68.6436 71.5814
      vertex -17.016 -30 30
    endloop
  endfacet
  facet normal 1 0 0
    outer loop
      vertex -17.016 -30 30
      vertex -17.016 -68.6436 71.5814
      vertex -17.016 -68.8254 71.3094
    endloop
  endfacet
  facet normal 1 0 0
    outer loop
      vertex -17.016 -30 30
      vertex -17.016 -69.2973 70.4492
      vertex -17.016 -69.4291 70.1497
    endloop
  endfacet
  facet normal 1 0 0
    outer loop
      vertex -17.016 39.4291 70.1497
      vertex -17.016 39.2973 70.4492
      vertex -17.016 3.91909e-13 30
    endloop
  endfacet
  facet normal 1 0 0
    outer loop
      vertex -17.016 39.2973 70.4492
      vertex -17.016 39.1526 70.7427
      vertex -17.016 3.91909e-13 30
    endloop
  endfacet
  facet normal 1 0 0
    outer loop
      vertex -17.016 3.91909e-13 30
      vertex -17.016 39.1526 70.7427
      vertex -17.016 38.9952 71.0296
    endloop
  endfacet
  facet normal 1 0 0
    outer loop
      vertex -17.016 38.9952 71.0296
      vertex -17.016 38.8254 71.3094
      vertex -17.016 3.91909e-13 30
    endloop
  endfacet
  facet normal 1 0 0
    outer loop
      vertex -17.016 38.8254 71.3094
      vertex -17.016 38.6436 71.5814
      vertex -17.016 3.91909e-13 30
    endloop
  endfacet
  facet normal 1 0 0
    outer loop
      vertex -17.016 3.91909e-13 30
      vertex -17.016 38.6436 71.5814
      vertex -17.016 38.4502 71.8453
    endloop
  endfacet
  facet normal 1 0 0
    outer loop
      vertex -17.016 38.4502 71.8453
      vertex -17.016 38.2453 72.1005
      vertex -17.016 3.91909e-13 30
    endloop
  endfacet
  facet normal 1 0 0
    outer loop
      vertex -17.016 38.2453 72.1005
      vertex -17.016 38.0296 72.3465
      vertex -17.016 3.91909e-13 30
    endloop
  endfacet
  facet normal 1 0 0
    outer loop
      vertex -17.016 3.91909e-13 30
      vertex -17.016 38.0296 72.3465
      vertex -17.016 37.8033 72.5829
    endloop
  endfacet
  facet normal 1 0 0
    outer loop
      vertex -17.016 -68.8254 71.3094
      vertex -17.016 -68.9952 71.0296
      vertex -17.016 -30 30
    endloop
  endfacet
  facet normal 1 0 0
    outer loop
      vertex -17.016 -68.9952 71.0296
      vertex -17.016 -69.1526 70.7427
      vertex -17.016 -30 30
    endloop
  endfacet
  facet normal 1 0 0
    outer loop
      vertex -17.016 -30 30
      vertex -17.016 -69.1526 70.7427
      vertex -17.016 -69.2973 70.4492
    endloop
  endfacet
  facet normal 1 0 0
    outer loop
      vertex -17.016 -69.4291 70.1497
      vertex -17.016 -69.5477 69.8448
      vertex -17.016 -30 30
    endloop
  endfacet
  facet normal 1 0 0
    outer loop
      vertex -17.016 -69.5477 69.8448
      vertex -17.016 -69.6529 69.5349
      vertex -17.016 -30 30
    endloop
  endfacet
  facet normal 1 0 0
    outer loop
      vertex -17.016 -30 30
      vertex -17.016 -69.6529 69.5349
      vertex -17.016 -69.7444 69.2207
    endloop
  endfacet
  facet normal 0 0 -1
    outer loop
      vertex -25.016 40 24.7796
      vertex -17.016 40 24.7796
      vertex -25.016 -9.24725e-26 24.7796
    endloop
  endfacet
  facet normal 0 0 -1
    outer loop
      vertex -17.016 40 24.7796
      vertex -17.016 3.91909e-13 24.7796
      vertex -25.016 -9.24725e-26 24.7796
    endloop
  endfacet
  facet normal 0 0.0218127 0.999762
    outer loop
      vertex -25.016 32.5 74.7796
      vertex -17.016 32.5 74.7796
      vertex -17.016 32.8271 74.7725
    endloop
  endfacet
  facet normal 0 0.0218127 0.999762
    outer loop
      vertex -25.016 32.5 74.7796
      vertex -17.016 32.8271 74.7725
      vertex -25.016 32.8271 74.7725
    endloop
  endfacet
  facet normal 0 0.0653931 0.99786
    outer loop
      vertex -17.016 32.8271 74.7725
      vertex -17.016 33.1537 74.7511
      vertex -25.016 32.8271 74.7725
    endloop
  endfacet
  facet normal 0 0.0653931 0.99786
    outer loop
      vertex -25.016 32.8271 74.7725
      vertex -17.016 33.1537 74.7511
      vertex -25.016 33.1537 74.7511
    endloop
  endfacet
  facet normal 0 0.108882 0.994055
    outer loop
      vertex -17.016 33.1537 74.7511
      vertex -17.016 33.4789 74.7154
      vertex -25.016 33.1537 74.7511
    endloop
  endfacet
  facet normal 0 0.108882 0.994055
    outer loop
      vertex -25.016 33.1537 74.7511
      vertex -17.016 33.4789 74.7154
      vertex -25.016 33.4789 74.7154
    endloop
  endfacet
  facet normal 0 0.15212 0.988362
    outer loop
      vertex -17.016 33.4789 74.7154
      vertex -17.016 33.8024 74.6657
      vertex -25.016 33.4789 74.7154
    endloop
  endfacet
  facet normal 0 0.15212 0.988362
    outer loop
      vertex -25.016 33.4789 74.7154
      vertex -17.016 33.8024 74.6657
      vertex -25.016 33.8024 74.6657
    endloop
  endfacet
  facet normal 0 0.195085 0.980786
    outer loop
      vertex -17.016 33.8024 74.6657
      vertex -17.016 34.1233 74.6018
      vertex -25.016 33.8024 74.6657
    endloop
  endfacet
  facet normal 0 0.195085 0.980786
    outer loop
      vertex -25.016 33.8024 74.6657
      vertex -17.016 34.1233 74.6018
      vertex -25.016 34.1233 74.6018
    endloop
  endfacet
  facet normal 0 0.237687 0.971342
    outer loop
      vertex -17.016 34.1233 74.6018
      vertex -17.016 34.4411 74.524
      vertex -25.016 34.1233 74.6018
    endloop
  endfacet
  facet normal 0 0.237687 0.971342
    outer loop
      vertex -25.016 34.1233 74.6018
      vertex -17.016 34.4411 74.524
      vertex -25.016 34.4411 74.524
    endloop
  endfacet
  facet normal 0 0.279833 0.960049
    outer loop
      vertex -17.016 34.4411 74.524
      vertex -17.016 34.7553 74.4325
      vertex -25.016 34.4411 74.524
    endloop
  endfacet
  facet normal 0 0.279833 0.960049
    outer loop
      vertex -25.016 34.4411 74.524
      vertex -17.016 34.7553 74.4325
      vertex -25.016 34.7553 74.4325
    endloop
  endfacet
  facet normal 0 0.321431 0.946933
    outer loop
      vertex -17.016 34.7553 74.4325
      vertex -17.016 35.0652 74.3273
      vertex -25.016 34.7553 74.4325
    endloop
  endfacet
  facet normal 0 0.321431 0.946933
    outer loop
      vertex -25.016 34.7553 74.4325
      vertex -17.016 35.0652 74.3273
      vertex -25.016 35.0652 74.3273
    endloop
  endfacet
  facet normal 0 0.362439 0.932008
    outer loop
      vertex -17.016 35.0652 74.3273
      vertex -17.016 35.3701 74.2087
      vertex -25.016 35.0652 74.3273
    endloop
  endfacet
  facet normal 0 0.362439 0.932008
    outer loop
      vertex -25.016 35.0652 74.3273
      vertex -17.016 35.3701 74.2087
      vertex -25.016 35.3701 74.2087
    endloop
  endfacet
  facet normal 0 0.402762 0.915305
    outer loop
      vertex -17.016 35.3701 74.2087
      vertex -17.016 35.6696 74.0769
      vertex -25.016 35.3701 74.2087
    endloop
  endfacet
  facet normal 0 0.402762 0.915305
    outer loop
      vertex -25.016 35.3701 74.2087
      vertex -17.016 35.6696 74.0769
      vertex -25.016 35.6696 74.0769
    endloop
  endfacet
  facet normal 0 0.442289 0.896873
    outer loop
      vertex -17.016 35.6696 74.0769
      vertex -17.016 35.9631 73.9322
      vertex -25.016 35.6696 74.0769
    endloop
  endfacet
  facet normal 0 0.442289 0.896873
    outer loop
      vertex -25.016 35.6696 74.0769
      vertex -17.016 35.9631 73.9322
      vertex -25.016 35.9631 73.9322
    endloop
  endfacet
  facet normal 0 0.480979 0.876732
    outer loop
      vertex -17.016 35.9631 73.9322
      vertex -17.016 36.25 73.7748
      vertex -25.016 35.9631 73.9322
    endloop
  endfacet
  facet normal 0 0.480979 0.876732
    outer loop
      vertex -25.016 35.9631 73.9322
      vertex -17.016 36.25 73.7748
      vertex -25.016 36.25 73.7748
    endloop
  endfacet
  facet normal 0 0.518772 0.854913
    outer loop
      vertex -17.016 36.25 73.7748
      vertex -17.016 36.5297 73.605
      vertex -25.016 36.25 73.7748
    endloop
  endfacet
  facet normal 0 0.518772 0.854913
    outer loop
      vertex -25.016 36.25 73.7748
      vertex -17.016 36.5297 73.605
      vertex -25.016 36.5297 73.605
    endloop
  endfacet
  facet normal 0 0.555567 0.831472
    outer loop
      vertex -17.016 36.5297 73.605
      vertex -17.016 36.8018 73.4232
      vertex -25.016 36.5297 73.605
    endloop
  endfacet
  facet normal 0 0.555567 0.831472
    outer loop
      vertex -25.016 36.5297 73.605
      vertex -17.016 36.8018 73.4232
      vertex -25.016 36.8018 73.4232
    endloop
  endfacet
  facet normal 0 0.591311 0.806444
    outer loop
      vertex -17.016 36.8018 73.4232
      vertex -17.016 37.0657 73.2298
      vertex -25.016 36.8018 73.4232
    endloop
  endfacet
  facet normal 0 0.591311 0.806444
    outer loop
      vertex -25.016 36.8018 73.4232
      vertex -17.016 37.0657 73.2298
      vertex -25.016 37.0657 73.2298
    endloop
  endfacet
  facet normal 0 0.625922 0.779886
    outer loop
      vertex -17.016 37.0657 73.2298
      vertex -17.016 37.3209 73.0249
      vertex -25.016 37.0657 73.2298
    endloop
  endfacet
  facet normal 0 0.625922 0.779886
    outer loop
      vertex -25.016 37.0657 73.2298
      vertex -17.016 37.3209 73.0249
      vertex -25.016 37.3209 73.0249
    endloop
  endfacet
  facet normal 0 0.659349 0.751837
    outer loop
      vertex -17.016 37.3209 73.0249
      vertex -17.016 37.5669 72.8092
      vertex -25.016 37.3209 73.0249
    endloop
  endfacet
  facet normal 0 0.659349 0.751837
    outer loop
      vertex -25.016 37.3209 73.0249
      vertex -17.016 37.5669 72.8092
      vertex -25.016 37.5669 72.8092
    endloop
  endfacet
  facet normal 0 0.691518 0.722359
    outer loop
      vertex -17.016 37.5669 72.8092
      vertex -17.016 37.8033 72.5829
      vertex -25.016 37.5669 72.8092
    endloop
  endfacet
  facet normal 0 0.691518 0.722359
    outer loop
      vertex -25.016 37.5669 72.8092
      vertex -17.016 37.8033 72.5829
      vertex -25.016 37.8033 72.5829
    endloop
  endfacet
  facet normal 0 0.722364 0.691513
    outer loop
      vertex -17.016 37.8033 72.5829
      vertex -17.016 38.0296 72.3465
      vertex -25.016 37.8033 72.5829
    endloop
  endfacet
  facet normal 0 0.722364 0.691513
    outer loop
      vertex -25.016 37.8033 72.5829
      vertex -17.016 38.0296 72.3465
      vertex -25.016 38.0296 72.3465
    endloop
  endfacet
  facet normal 0 0.751843 0.659342
    outer loop
      vertex -17.016 38.0296 72.3465
      vertex -17.016 38.2453 72.1005
      vertex -25.016 38.0296 72.3465
    endloop
  endfacet
  facet normal 0 0.751843 0.659342
    outer loop
      vertex -25.016 38.0296 72.3465
      vertex -17.016 38.2453 72.1005
      vertex -25.016 38.2453 72.1005
    endloop
  endfacet
  facet normal 0 0.77988 0.625929
    outer loop
      vertex -17.016 38.2453 72.1005
      vertex -17.016 38.4502 71.8453
      vertex -25.016 38.2453 72.1005
    endloop
  endfacet
  facet normal 0 0.77988 0.625929
    outer loop
      vertex -25.016 38.2453 72.1005
      vertex -17.016 38.4502 71.8453
      vertex -25.016 38.4502 71.8453
    endloop
  endfacet
  facet normal 0 0.806445 0.591309
    outer loop
      vertex -17.016 38.4502 71.8453
      vertex -17.016 38.6436 71.5814
      vertex -25.016 38.4502 71.8453
    endloop
  endfacet
  facet normal 0 0.806445 0.591309
    outer loop
      vertex -25.016 38.4502 71.8453
      vertex -17.016 38.6436 71.5814
      vertex -25.016 38.6436 71.5814
    endloop
  endfacet
  facet normal 0 0.831463 0.55558
    outer loop
      vertex -17.016 38.6436 71.5814
      vertex -17.016 38.8254 71.3094
      vertex -25.016 38.6436 71.5814
    endloop
  endfacet
  facet normal 0 0.831463 0.55558
    outer loop
      vertex -25.016 38.6436 71.5814
      vertex -17.016 38.8254 71.3094
      vertex -25.016 38.8254 71.3094
    endloop
  endfacet
  facet normal 0 0.854913 0.518772
    outer loop
      vertex -17.016 38.8254 71.3094
      vertex -17.016 38.9952 71.0296
      vertex -25.016 38.8254 71.3094
    endloop
  endfacet
  facet normal 0 0.854913 0.518772
    outer loop
      vertex -25.016 38.8254 71.3094
      vertex -17.016 38.9952 71.0296
      vertex -25.016 38.9952 71.0296
    endloop
  endfacet
  facet normal 0 0.876733 0.480978
    outer loop
      vertex -17.016 38.9952 71.0296
      vertex -17.016 39.1526 70.7427
      vertex -25.016 38.9952 71.0296
    endloop
  endfacet
  facet normal 0 0.876733 0.480978
    outer loop
      vertex -25.016 38.9952 71.0296
      vertex -17.016 39.1526 70.7427
      vertex -25.016 39.1526 70.7427
    endloop
  endfacet
  facet normal 0 0.896868 0.442298
    outer loop
      vertex -17.016 39.1526 70.7427
      vertex -17.016 39.2973 70.4492
      vertex -25.016 39.1526 70.7427
    endloop
  endfacet
  facet normal 0 0.896868 0.442298
    outer loop
      vertex -25.016 39.1526 70.7427
      vertex -17.016 39.2973 70.4492
      vertex -25.016 39.2973 70.4492
    endloop
  endfacet
  facet normal 0 0.915315 0.402739
    outer loop
      vertex -17.016 39.2973 70.4492
      vertex -17.016 39.4291 70.1497
      vertex -25.016 39.2973 70.4492
    endloop
  endfacet
  facet normal 0 0.915315 0.402739
    outer loop
      vertex -25.016 39.2973 70.4492
      vertex -17.016 39.4291 70.1497
      vertex -25.016 39.4291 70.1497
    endloop
  endfacet
  facet normal 0 0.932008 0.362439
    outer loop
      vertex -17.016 39.4291 70.1497
      vertex -17.016 39.5477 69.8448
      vertex -25.016 39.4291 70.1497
    endloop
  endfacet
  facet normal 0 0.932008 0.362439
    outer loop
      vertex -25.016 39.4291 70.1497
      vertex -17.016 39.5477 69.8448
      vertex -25.016 39.5477 69.8448
    endloop
  endfacet
  facet normal 0 0.946931 0.321438
    outer loop
      vertex -17.016 39.5477 69.8448
      vertex -17.016 39.6529 69.5349
      vertex -25.016 39.5477 69.8448
    endloop
  endfacet
  facet normal 0 0.946931 0.321438
    outer loop
      vertex -25.016 39.5477 69.8448
      vertex -17.016 39.6529 69.5349
      vertex -25.016 39.6529 69.5349
    endloop
  endfacet
  facet normal 0 0.960048 0.279836
    outer loop
      vertex -17.016 39.6529 69.5349
      vertex -17.016 39.7444 69.2207
      vertex -25.016 39.6529 69.5349
    endloop
  endfacet
  facet normal 0 0.960048 0.279836
    outer loop
      vertex -25.016 39.6529 69.5349
      vertex -17.016 39.7444 69.2207
      vertex -25.016 39.7444 69.2207
    endloop
  endfacet
  facet normal 0 0.971342 0.237684
    outer loop
      vertex -17.016 39.7444 69.2207
      vertex -17.016 39.8222 68.9029
      vertex -25.016 39.7444 69.2207
    endloop
  endfacet
  facet normal 0 0.971342 0.237684
    outer loop
      vertex -25.016 39.7444 69.2207
      vertex -17.016 39.8222 68.9029
      vertex -25.016 39.8222 68.9029
    endloop
  endfacet
  facet normal 0 0.980786 0.195087
    outer loop
      vertex -17.016 39.8222 68.9029
      vertex -17.016 39.8861 68.582
      vertex -25.016 39.8222 68.9029
    endloop
  endfacet
  facet normal 0 0.980786 0.195087
    outer loop
      vertex -25.016 39.8222 68.9029
      vertex -17.016 39.8861 68.582
      vertex -25.016 39.8861 68.582
    endloop
  endfacet
  facet normal 0 0.988362 0.15212
    outer loop
      vertex -17.016 39.8861 68.582
      vertex -17.016 39.9358 68.2585
      vertex -25.016 39.8861 68.582
    endloop
  endfacet
  facet normal 0 0.988362 0.15212
    outer loop
      vertex -25.016 39.8861 68.582
      vertex -17.016 39.9358 68.2585
      vertex -25.016 39.9358 68.2585
    endloop
  endfacet
  facet normal 0 0.994056 0.108871
    outer loop
      vertex -17.016 39.9358 68.2585
      vertex -17.016 39.9715 67.9333
      vertex -25.016 39.9358 68.2585
    endloop
  endfacet
  facet normal 0 0.994056 0.108871
    outer loop
      vertex -25.016 39.9358 68.2585
      vertex -17.016 39.9715 67.9333
      vertex -25.016 39.9715 67.9333
    endloop
  endfacet
  facet normal 0 0.997859 0.0654044
    outer loop
      vertex -17.016 39.9715 67.9333
      vertex -17.016 39.9929 67.6067
      vertex -25.016 39.9715 67.9333
    endloop
  endfacet
  facet normal 0 0.997859 0.0654044
    outer loop
      vertex -25.016 39.9715 67.9333
      vertex -17.016 39.9929 67.6067
      vertex -25.016 39.9929 67.6067
    endloop
  endfacet
  facet normal 0 0.999762 0.0218127
    outer loop
      vertex -17.016 39.9929 67.6067
      vertex -17.016 40 67.2796
      vertex -25.016 39.9929 67.6067
    endloop
  endfacet
  facet normal 0 0.999762 0.0218127
    outer loop
      vertex -25.016 39.9929 67.6067
      vertex -17.016 40 67.2796
      vertex -25.016 40 67.2796
    endloop
  endfacet
  facet normal 0 0 1
    outer loop
      vertex -20 -30 74.7796
      vertex -25.016 -30 74.7796
      vertex -25.016 -62.5 74.7796
    endloop
  endfacet
  facet normal 0 0 1
    outer loop
      vertex -17.016 32.5 74.7796
      vertex -25.016 32.5 74.7796
      vertex -25.016 9.99224e-29 74.7796
    endloop
  endfacet
  facet normal 0 0 1
    outer loop
      vertex -25.016 9.99224e-29 74.7796
      vertex -20 1.30029e-15 74.7796
      vertex -17.016 32.5 74.7796
    endloop
  endfacet
  facet normal 0 0 1
    outer loop
      vertex -20 1.30029e-15 74.7796
      vertex -20 -30 74.7796
      vertex -17.016 32.5 74.7796
    endloop
  endfacet
  facet normal 0 0 1
    outer loop
      vertex -17.016 32.5 74.7796
      vertex -20 -30 74.7796
      vertex -17.016 -62.5 74.7796
    endloop
  endfacet
  facet normal 0 0 1
    outer loop
      vertex -20 -30 74.7796
      vertex -25.016 -62.5 74.7796
      vertex -17.016 -62.5 74.7796
    endloop
  endfacet
endsolid Mesh
